<?xml version="1.0" encoding="UTF-8" standalone="no"?>
<!DOCTYPE svg PUBLIC "-//W3C//DTD SVG 1.1//EN" "http://www.w3.org/Graphics/SVG/1.1/DTD/svg11.dtd">
<!-- Created with Vectornator (http://vectornator.io/) -->
<svg stroke-miterlimit="10" style="fill-rule:nonzero;clip-rule:evenodd;stroke-linecap:round;stroke-linejoin:round;" version="1.1" viewBox="0 0 425.25 425.25" xml:space="preserve" xmlns="http://www.w3.org/2000/svg" xmlns:xlink="http://www.w3.org/1999/xlink">
<defs/>
<g id="Layer-1">
<g opacity="1">
<clipPath id="ClipPath">
<path d="M56.9722 414.904L357.967 414.904L357.967 13.5774L56.9722 13.5774L56.9722 414.904Z"/>
</clipPath>
<g clip-path="url(#ClipPath)">
<clipPath id="ClipPath_2">
<path d="M56.741 415.273L358.198 415.273L358.198 13.2075L56.741 13.2075L56.741 415.273Z"/>
</clipPath>
<g clip-path="url(#ClipPath_2)">
<clipPath id="ClipPath_3">
<path d="M56.741 415.273L358.198 415.273L358.198 13.2075L56.741 13.2075L56.741 415.273Z"/>
</clipPath>
<g clip-path="url(#ClipPath_3)">
<path d="M357.967 109.093L357.967 113.909L257.635 113.909L257.635 13.5774L262.451 13.5774C267.406 13.5737 272.163 15.52 275.695 18.9954L352.549 95.8492C355.921 99.448 357.85 104.163 357.967 109.093M282.718 198.589L282.718 204.809C282.718 210.018 278.496 214.241 273.287 214.241L141.652 214.241C136.443 214.241 132.221 210.018 132.221 204.809L132.221 198.589C132.221 193.38 136.443 189.158 141.652 189.158L273.287 189.158C278.496 189.158 282.718 193.38 282.718 198.589M282.718 254.975C282.718 260.184 278.496 264.406 273.287 264.406L141.652 264.406C139.043 264.412 136.548 263.336 134.761 261.435C132.974 259.534 132.054 256.977 132.221 254.373L132.221 248.153C132.221 242.944 136.443 238.721 141.652 238.721L273.287 238.721C278.496 238.721 282.718 242.944 282.718 248.153L282.718 254.975ZM282.718 305.141C282.718 310.35 278.496 314.572 273.287 314.572L141.652 314.572C136.443 314.572 132.221 310.35 132.221 305.141L132.221 298.92C132.221 293.712 136.443 289.489 141.652 289.489L273.287 289.489C278.496 289.489 282.718 293.712 282.718 298.92L282.718 305.141ZM232.552 120.129L232.552 13.5774L75.8346 13.5774C65.4172 13.5774 56.9722 22.0222 56.9722 32.4397L56.9722 396.041C56.9722 406.459 65.4172 414.904 75.8346 414.904L339.105 414.904C349.522 414.904 357.967 406.459 357.967 396.041L357.967 138.992L251.415 138.992C240.997 138.992 232.552 130.547 232.552 120.129" fill="#000000" fill-rule="nonzero" opacity="1" stroke="none"/>
</g>
</g>
</g>
</g>
</g>
</svg>
