<?xml version="1.0" encoding="UTF-8" standalone="no"?>
<!DOCTYPE svg PUBLIC "-//W3C//DTD SVG 1.1//EN" "http://www.w3.org/Graphics/SVG/1.1/DTD/svg11.dtd">
<!-- Created with Vectornator (http://vectornator.io/) -->
<svg height="100%" stroke-miterlimit="10" style="fill-rule:nonzero;clip-rule:evenodd;stroke-linecap:round;stroke-linejoin:round;" version="1.1" viewBox="0 0 80 80" width="100%" xml:space="preserve" xmlns="http://www.w3.org/2000/svg" xmlns:vectornator="http://vectornator.io" xmlns:xlink="http://www.w3.org/1999/xlink">
<defs/>
<g id="Layer-1" vectornator:layerName="Layer 1">
<path d="M2.227 39.9993C2.227 18.7265 19.2548 1.48156 40.2598 1.48156C61.2647 1.48156 78.2925 18.7265 78.2925 39.9993C78.2925 61.272 61.2647 78.5169 40.2598 78.5169C19.2548 78.5169 2.227 61.272 2.227 39.9993Z" fill="#dddddd" fill-rule="nonzero" opacity="1" stroke="none"/>
</g>
<g id="color" vectornator:layerName="color">
<path d="M23.871 27.0504L20.2687 28.6306L16.2044 32.3004L15.7792 36.643L13.2877 43.8573L12.8626 52.967L14.785 58.4107L19.7265 61.8004L24.2606 60.7199L25.7043 57.8837L25.1081 54.9029C25.1081 54.9029 22.5178 52.8232 21.6584 56.0363C21.4202 56.9267 20.5201 57.5459 19.6408 57.2696C19.2867 57.1584 18.9022 56.9301 18.5064 56.519C15.6096 53.511 19.8502 50.3965 19.8502 50.3965L21.4916 48.1336C21.4916 48.1336 25.531 50.1706 28.076 48.8836L28.076 51.8004L29.4249 59.3042L29.7756 61.9244L28.076 65.1338L28.598 66.2915L35.4416 66.2915L36.3004 64.5655C36.3004 64.5655 35.8894 55.6034 36.9218 53.5353C37.9542 51.4672 36.9218 53.5353 36.9218 53.5353L40.885 55.0882L47.5154 54.3327L52.5302 53.384C55.8223 53.8519 57.8281 55.1567 57.9193 57.7071L58.2832 61.93L56.5973 65.2244L56.621 66.8004L62.1981 67.0012L64.4712 65.3254L64.3807 49.802L64.4712 42.8224L63.9418 37.4407L60.9136 32.5981L55.7215 28.6107L50.8255 28.2449L44.2439 29.4435L38.0118 29.4681L34.1972 27.2509L29.871 25.7848L25.588 26.8544L23.871 27.0504Z" fill="#b5b5ff" fill-rule="nonzero" opacity="1" stroke="none"/>
<path d="M50.871 52.9671L51.9543 56.8838L51.5005 61.1338L49.8011 65.4671L53.6061 67.0048L56.1695 66.6733L56.5974 65.2244L58.6627 62.0921L58.3294 57.6338L57.1627 54.8421L54.2319 53.3004L50.871 52.9671Z" fill="#515182" fill-rule="nonzero" opacity="1" stroke="none"/>
<path d="M19.5259 34.8445C19.5259 34.2981 19.9689 33.8551 20.5153 33.8551C21.0618 33.8551 21.5047 34.2981 21.5047 34.8445C21.5047 35.3909 21.0618 35.8339 20.5153 35.8339C19.9689 35.8339 19.5259 35.3909 19.5259 34.8445Z" fill="#000000" fill-rule="nonzero" opacity="1" stroke="#000000" stroke-linecap="butt" stroke-linejoin="round" stroke-width="1"/>
<path d="M35.8838 56.9121L36.134 66.0357L38.4643 66.1068L38.7384 61.0032C38.7384 61.0032 37.5815 60.1746 38.1992 54.8463C38.4308 52.8482 38.0039 53.5832 37.7248 53.5208C37.2596 53.4169 36.7143 53.6034 36.7143 53.6034L35.8838 56.9121Z" fill="#515182" fill-rule="nonzero" opacity="1" stroke="none"/>
</g>
<g id="line" vectornator:layerName="line">
<path d="M24.4018 55.5177C25.6859 57.8175 25.0723 59.6852 24.095 60.612C23.0368 61.6155 20.9711 62.0642 19.5609 61.6925C6.91564 58.3597 15.6136 36.5351 15.6136 36.5351C16.2288 27.3075 23.6988 27.659 23.6988 27.659C23.6988 27.659 30.6093 23.0901 34.7174 27.8252C35.9473 29.2428 36.493 31.1248 36.4371 33.0007C36.35 35.928 39.3188 39.9584 34.7845 43.3591C33.0345 44.6716 33.8375 48.4671 30.2845 48.9424C30.2845 48.9424 25.1927 49.4621 25.1048 41.4649" fill="none" opacity="1" stroke="#000000" stroke-linecap="round" stroke-linejoin="round" stroke-width="2"/>
<path d="M28.5153 49.3462C28.5153 49.3462 28.2039 51.7979 29.6101 61.8164L28.0996 64.4141C27.5909 65.2889 28.1625 66.4017 29.1709 66.4855C30.3958 66.5873 33.1208 66.663 34.4322 66.4989C35.4436 66.3723 36.2578 65.4692 36.135 64.4573C35.2797 57.4111 36.7564 53.4271 36.7564 53.4271C41.4171 57.0003 47.9794 53.6233 51.6705 53.2717C52.4087 53.2014 53.7092 53.4388 54.3232 53.6152C56.6363 54.2795 58.1759 55.738 58.1177 62.2046L56.5642 64.768C56.0731 65.6747 56.721 66.8051 57.7294 67.0206C58.8296 67.2558 61.8889 66.9689 62.7979 66.7681C64.5277 66.3861 64.4486 64.5595 64.5552 62.7913C64.7825 59.0214 64.4577 53.7771 64.2498 51.0472C64.1741 50.0536 64.2052 49.0611 64.3515 48.0754C64.7226 45.5748 67.5419 35.5274 56.1803 28.8668C52.0738 26.4594 47.9566 29.2339 43.4377 30.0205C40.7219 30.4932 37.6947 29.8496 34.905 28.0509" fill="none" opacity="1" stroke="#000000" stroke-linecap="round" stroke-linejoin="round" stroke-width="2"/>
<path d="M21.3259 44.7081C21.3259 44.7081 21.5017 55.5176 8.31934 55.8692" fill="none" opacity="1" stroke="#000000" stroke-linecap="round" stroke-linejoin="round" stroke-width="2"/>
<path d="M63.4475 35.9483C67.3393 38.6669 69.9927 42.9807 67.903 49.8001" fill="none" opacity="1" stroke="#000000" stroke-linecap="round" stroke-linejoin="round" stroke-width="2"/>
<path d="M51.5346 54.257L51.8952 59.1082C51.9525 59.8786 51.7797 60.6484 51.4051 61.2917L50.612 62.6536C50.4201 62.983 50.2771 63.4784 50.1952 64.022C49.9821 65.4365 51.7106 66.5876 52.9644 66.5876L56.5301 66.6758" fill="none" opacity="1" stroke="#000000" stroke-linecap="round" stroke-linejoin="round" stroke-width="2"/>
<path d="M37.4489 54.748L38.2009 61.589L38.4621 62.4602C38.6738 62.8403 38.7969 63.285 38.8789 63.8286C38.9939 64.5928 38.6153 65.1342 37.9978 65.5228C37.7919 65.6524 37.4717 65.8027 37.2513 65.8882C36.9093 66.021 36.5424 66.0917 36.1918 66.0917L35.0819 66.3828" fill="none" opacity="1" stroke="#000000" stroke-linecap="round" stroke-linejoin="round" stroke-width="2"/>
<g opacity="1">
<path d="M40.5537 7.66131C40.5537 9.66723 38.4547 11.2747 37.019 12.5294" fill="none" opacity="1" stroke="#000000" stroke-linecap="round" stroke-linejoin="round" stroke-width="2"/>
<path d="M40.6987 7.63315C40.6987 8.97469 41.6098 10.1429 42.6521 11.1507C43.2123 11.6924 43.8104 12.1877 44.3253 12.6387" fill="none" opacity="1" stroke="#000000" stroke-linecap="round" stroke-linejoin="round" stroke-width="2"/>
<path d="M40.5791 7.76249L40.5844 23.3042" fill="none" opacity="1" stroke="#000000" stroke-linecap="round" stroke-linejoin="round" stroke-width="2"/>
</g>
</g>
</svg>
