<?xml version="1.0" encoding="UTF-8" standalone="no"?>
<!DOCTYPE svg PUBLIC "-//W3C//DTD SVG 1.1//EN" "http://www.w3.org/Graphics/SVG/1.1/DTD/svg11.dtd">
<!-- Created with Vectornator (http://vectornator.io/) -->
<svg stroke-miterlimit="10" style="fill-rule:nonzero;clip-rule:evenodd;stroke-linecap:round;stroke-linejoin:round;" version="1.1" viewBox="0 0 226.8 311.85" xml:space="preserve" xmlns="http://www.w3.org/2000/svg" xmlns:xlink="http://www.w3.org/1999/xlink">
<defs>
<clipPath id="TextBounds">
<rect height="146.261" transform="matrix(1 -0 -0 1 -113.943 -88.288)" width="97.6365" x="113.943" y="88.288"/>
</clipPath>
</defs>
<g id="Layer-1">
<path d="M32.703 53.0771C29.0363 53.0771 25.8696 53.9641 23.203 55.7021C20.5363 57.4402 18.5363 59.8861 17.203 63.0146C15.8696 66.1431 14.8696 90.9973 14.203 137.577C13.5363 184.157 20.328 205.418 22.328 211.327C24.328 217.237 26.828 222.984 29.828 228.546C32.828 234.108 38.6613 241.934 47.328 252.015C55.9946 262.095 64.9946 270.441 74.328 277.046C83.6613 283.65 91.1613 288.328 96.828 291.108C102.495 293.889 106.661 295.448 109.328 295.796C111.995 296.143 117.828 294.065 126.828 289.546C135.828 285.027 144.828 279.463 153.828 272.858C162.828 266.254 170.495 259.314 176.828 252.015C183.161 244.715 188.828 236.369 193.828 226.983C198.828 217.598 202.828 206.134 205.828 192.577C208.828 179.02 210.83 161.966 210.401 140.655C209.414 91.6519 208.036 64.0494 205.703 60.9209C203.37 57.7924 201.036 55.7138 198.703 54.6709C196.37 53.6281 192.37 53.4444 186.703 54.1396C181.036 54.8349 175.703 56.2102 170.703 58.2959C165.703 60.3816 160.37 61.9718 154.703 63.0146C149.036 64.0575 143.036 64.3935 136.703 64.0459C130.37 63.6983 125.203 62.2916 121.203 59.8584C117.203 57.4251 112.536 57.2728 107.203 59.3584C101.87 61.4441 94.5363 62.667 85.203 63.0146C75.8696 63.3622 65.703 61.772 54.703 58.2959C43.703 54.8198 36.3696 53.0771 32.703 53.0771ZM36.6405 65.0146C40.9738 65.3622 48.4738 67.0737 59.1405 70.2021C69.8071 73.3306 78.1405 74.9209 84.1405 74.9209C90.1405 74.9209 97.1405 74.2176 105.14 72.8271C106.927 72.5167 108.629 72.2802 110.265 72.1084C115.959 71.5106 120.757 71.7471 124.64 72.8271C129.64 74.2176 135.307 74.9209 141.64 74.9209C147.974 74.9209 157.14 73.1782 169.14 69.7021C181.14 66.226 188.807 64.667 192.14 65.0146C195.474 65.3622 197.974 66.4016 199.64 68.1396C201.307 69.8777 202.474 72.812 203.14 76.9834C203.807 81.1547 204.088 101.064 204.088 140.691C204.088 180.319 197.12 202.641 193.453 210.983C189.786 219.326 186.12 226.265 182.453 231.827C178.786 237.389 172.453 244.512 163.453 253.202C161.932 254.671 167.471 249.032 165.922 250.421C159.402 256.266 147.442 266.581 138.922 272.515C137.485 273.515 136.152 274.4 134.953 275.108C124.953 281.018 117.786 284.355 113.453 284.702C109.12 285.05 105.62 284.495 102.953 283.452C100.286 282.409 93.6196 278.404 82.953 271.452C72.2863 264.5 63.2863 257.041 55.953 249.046C48.6196 241.051 42.1196 231.298 36.453 219.827C30.7863 208.356 26.953 197.259 24.953 186.483C23.9055 180.84 22.9095 177.803 22.1983 172.346C21.5516 167.384 21.1405 160.419 21.1405 147.671C21.1405 120.905 21.4738 122.153 22.1405 101.296C22.8071 80.4392 24.3071 71.4205 26.6405 68.6396C28.9738 65.8587 32.3071 64.667 36.6405 65.0146Z" fill="#000000" fill-rule="nonzero" opacity="1" stroke="none"/>
<text clip-path="url(#TextBounds)" fill="#000000" font-family="HoeflerText-Regular" font-size="122" opacity="1" stroke="#000000" stroke-linecap="round" stroke-linejoin="round" stroke-width="4" text-anchor="middle" transform="matrix(1 0 0 1 113.943 88.288)" x="0" y="0">
<tspan textLength="45.994" x="48.8182" y="112">J</tspan>
</text>
</g>
<g id="Layer-2">
<path d="M109.105 8.07592C109.105 10.4877 109.105 12.9025 109.105 15.3143C109.105 17.7261 109.105 20.1409 109.105 22.5527C106.792 22.5527 104.48 22.5527 102.167 22.5527C99.8543 22.5527 97.5416 22.5527 95.2289 22.5527C95.2289 23.8513 95.2289 25.1567 95.2289 26.4554C95.2289 27.754 95.2289 29.0594 95.2289 30.3581C97.5416 30.3581 99.8543 30.3581 102.167 30.3581C104.48 30.3581 106.792 30.3581 109.105 30.3581C109.105 32.7699 109.105 35.1847 109.105 37.5965C109.105 40.0082 109.105 42.423 109.105 44.8348C110.351 44.8348 111.596 44.8348 112.841 44.8348C114.086 44.8348 115.332 44.8348 116.577 44.8348C116.577 42.423 116.577 40.0082 116.577 37.5965C116.577 35.1847 116.577 32.7698 116.577 30.3581C118.89 30.3581 121.203 30.3581 123.515 30.3581C125.828 30.3581 128.141 30.3581 130.453 30.3581C130.453 29.0594 130.453 27.754 130.453 26.4554C130.453 25.1567 130.453 23.8513 130.453 22.5527C128.141 22.5527 125.828 22.5527 123.515 22.5527C121.203 22.5527 118.89 22.5527 116.577 22.5527C116.577 20.1409 116.577 17.726 116.577 15.3143C116.577 12.9025 116.577 10.4877 116.577 8.07592C115.332 8.07592 114.086 8.07592 112.841 8.07592C111.596 8.07592 110.351 8.07592 109.105 8.07592Z" fill="#000000" fill-rule="nonzero" opacity="1" stroke="none"/>
</g>
</svg>
