<?xml version="1.0" encoding="UTF-8" standalone="no"?>
<!DOCTYPE svg PUBLIC "-//W3C//DTD SVG 1.1//EN" "http://www.w3.org/Graphics/SVG/1.1/DTD/svg11.dtd">
<!-- Created with Vectornator (http://vectornator.io/) -->
<svg stroke-miterlimit="10" style="fill-rule:nonzero;clip-rule:evenodd;stroke-linecap:round;stroke-linejoin:round;" version="1.1" viewBox="0 0 226.8 255.15" xml:space="preserve" xmlns="http://www.w3.org/2000/svg" xmlns:xlink="http://www.w3.org/1999/xlink">
<defs/>
<g id="Layer-1">
<g opacity="1">
<g opacity="1">
<path d="M93.1968 3.48008C93.1563 23.3385 93.1963 43.1972 93.0753 63.0553C93.0722 63.5535 92.0952 63.2455 91.981 63.0553C90.7628 61.025 88.6412 59.7073 86.9962 57.8272C83.9392 54.3336 80.0188 50.6464 76.7833 47.0064C70.5546 39.9992 63.4497 34.0539 57.2086 27.1886C56.0816 25.9489 54.8159 24.7959 53.5611 23.5411C53.1135 23.0935 52.9168 22.3543 52.3453 22.0821C51.9062 21.873 51.3632 21.9868 50.8863 22.0821C50.0883 22.2417 49.586 23.6087 49.0626 24.0274C47.4203 25.3412 44.8568 29.1984 43.2266 29.7418C43.2266 30.4357 39.4224 33.9108 38.7281 34.6051C35.9665 37.3666 33.2865 40.2899 30.5821 42.9942C29.834 43.7423 28.2551 44.7302 27.7857 45.669C27.3926 46.4553 28.819 47.3098 29.0015 47.8575C29.7949 47.8575 31.2709 49.7622 32.0411 50.5323C33.1721 51.6634 35.2745 54.3934 36.5396 55.1524C37.4337 55.6889 38.8738 56.8054 39.2144 57.8272C40.2612 57.8272 41.9281 60.1762 42.6187 60.8668C44.8659 63.1139 47.1964 64.9581 49.4273 67.1891C50.6431 68.4049 52.531 69.2053 53.0748 70.8365C53.4455 70.8365 56.387 73.784 57.2086 74.6056C60.0198 77.4168 62.9571 80.111 65.7193 82.8731C66.5061 83.66 68.5092 84.799 68.8804 85.9127C69.7678 85.9127 70.593 87.3406 70.3394 88.1012C69.9882 87.9256 69.631 87.9796 69.2452 87.9796C49.4273 87.9796 29.6094 87.9796 9.79156 87.9796C9.73077 104.697 9.73077 104.697 9.66998 121.415C29.5689 121.455 49.4678 121.496 69.3668 121.536C69.8683 121.537 70.5652 121.397 70.9473 121.779C70.7009 122.272 70.9965 122.703 70.5826 123.117C69.8921 122.772 67.2366 126.209 66.5704 126.764C62.1481 130.449 58.2942 134.554 54.169 138.679C47.7442 145.104 41.21 151.152 34.7159 157.646C33.29 159.072 27.7082 163.392 27.9073 165.184C27.9528 165.594 31.7257 168.944 32.0411 169.196C35.6008 172.044 38.8792 176.035 42.1324 179.288C44.5248 181.68 46.9294 184.085 49.3057 186.461C49.7379 186.893 50.4029 188.07 51.0079 188.163C52.8173 188.442 54.5862 185.94 55.628 184.759C58.5616 181.434 61.968 178.297 65.1114 175.154C75.1336 165.132 85.1401 155.125 95.1422 145.123C97.9124 142.353 101.305 139.372 103.774 136.491C104.629 135.494 105.739 133.729 106.936 133.33C106.936 132.46 110.724 129.145 111.799 129.682C113.337 130.451 114.107 132.648 115.446 133.451C116.388 134.016 116.685 134.69 117.513 135.518C119.935 137.94 122.404 140.287 124.808 142.692C125.814 143.698 129.421 146.683 129.793 147.798C130.461 147.798 131.977 149.86 132.346 150.23C134.443 152.326 136.544 154.549 138.669 156.673C146.285 164.29 153.793 171.798 161.404 179.409C163.44 181.445 165.201 183.328 167.24 185.367C167.971 186.097 169.095 187.974 169.915 188.163C171.684 188.571 172.517 186.899 173.563 185.853C174.758 184.657 176.014 183.523 177.21 182.327C181.172 178.366 185.023 174.271 189.003 170.291C190.25 169.044 193.512 166.623 194.232 165.184C195.108 163.431 190.702 161.404 190.219 159.956C189.53 159.956 188.47 158.297 187.909 157.889C187.223 157.39 182.41 152.82 182.195 152.175C181.965 152.175 177.428 147.529 176.967 147.068C172.073 142.174 167.137 137.23 161.891 132.6C159.332 130.342 157.137 127.645 154.717 125.427C154.1 124.861 151.944 123.644 151.799 122.63C151.646 121.557 152.301 121.779 153.137 121.779C172.468 121.779 191.8 121.779 211.131 121.779C211.588 121.779 211.997 121.779 212.469 121.779C212.469 104.576 212.469 104.576 212.469 87.3717C211.806 87.239 211.506 87.2501 210.888 87.2501C191.84 87.2501 172.793 87.0882 153.745 87.1285C153.63 87.1288 153.583 87.2906 153.502 87.3717C153.167 87.2046 152.583 87.223 152.286 87.3717C151.665 86.7513 153.552 85.158 154.231 84.8185C155.056 84.4059 155.398 83.6515 156.055 82.9947C157.998 81.052 160.079 79.4567 162.012 77.5235C164.974 74.5622 168.363 71.6596 171.374 68.648C172.223 67.799 173.423 66.2863 174.535 65.7301C175.919 65.0382 176.931 62.8201 178.304 61.8395C179.797 60.7734 184.937 56.355 185.721 54.7877C186.143 53.943 187.494 53.3794 188.152 52.7208C188.961 51.9121 193.147 48.3157 193.502 47.2496C193.624 47.3104 193.624 47.3104 193.745 47.3712C193.973 47.1433 194.659 46.0371 194.475 45.7906C192.827 43.594 190.627 41.9772 188.76 39.9547C186.536 37.5455 184.151 35.2238 181.83 32.9029C180.942 32.0145 178.603 30.2728 178.183 29.0123C177.592 29.0123 176.233 27.1803 175.994 26.7022C175.702 26.1169 174.822 25.9766 174.414 25.4864C173.322 24.1761 172.014 21.9525 170.037 22.4469C168.645 22.7947 167.89 24.3508 166.876 25.3648C164.727 27.5132 162.781 29.7026 160.675 31.8087C155.884 36.5995 151.052 41.5529 146.207 46.3985C144.243 48.3621 140.957 52.9749 138.79 54.0582C138.009 54.4489 137.582 55.5094 136.966 56.1251C135.645 57.4461 132.597 61.2694 131.252 61.7179C131.252 62.2839 130.753 62.5325 130.279 62.6905C130.279 63.3349 129.08 63.5556 128.942 62.9337C128.862 62.5754 129.064 62.2064 129.064 61.8395C129.064 42.4268 128.982 23.0143 128.942 3.60166C111.069 3.54087 111.069 3.54087 93.1968 3.48008Z" fill="#44e661" fill-rule="nonzero" opacity="1" stroke="none"/>
<path d="M92.4673 252.115C110.461 252.176 110.461 252.176 128.456 252.237C128.496 225.408 128.577 198.579 128.577 171.75C128.577 171.551 128.143 171.194 128.091 171.142C127.662 171.356 127.515 171.143 127.118 171.142C116.5 171.101 105.882 171.142 95.2637 171.142C94.7159 171.142 92.7122 170.945 92.7105 171.506C92.6297 198.295 92.7913 225.084 92.7105 251.872C92.7102 251.987 92.5484 252.034 92.4673 252.115Z" fill="#44e661" fill-rule="nonzero" opacity="1" stroke="none"/>
</g>
<path d="M9.79156 121.293C9.73077 121.779 9.73077 121.779 9.66998 122.266C9.79156 122.306 9.90657 122.387 10.0347 122.387C29.7309 122.468 49.4273 122.509 69.1236 122.509C70.3959 122.509 70.8624 124.5 71.0689 122.023C71.0796 121.895 71.231 121.779 71.1905 121.658C71.1361 121.495 70.9473 121.415 70.8257 121.293C70.4747 121.469 69.8567 121.415 69.4883 121.415C49.5894 121.415 29.6905 121.334 9.79156 121.293Z" fill="#cdf6d5" fill-rule="nonzero" opacity="1" stroke="none"/>
<path d="M9.79156 87.2501C9.73077 87.6756 9.73077 87.6756 9.66998 88.1012C29.5284 88.1417 49.3868 88.1824 69.2452 88.2228C69.6313 88.2235 69.9878 88.1685 70.3394 88.3443C70.5826 88.1012 70.5826 88.1012 70.8257 87.858C70.5898 87.3862 70.7793 86.8013 70.2178 86.5206C69.7783 86.3008 69.3966 87.2501 68.8804 87.2501C49.7515 87.2501 30.6227 87.3717 11.4937 87.3717C10.9898 87.3717 10.3261 87.3169 9.79156 87.2501Z" fill="#92ee9f" fill-rule="nonzero" opacity="1" stroke="none"/>
</g>
</g>
</svg>
