<?xml version="1.0" encoding="UTF-8" standalone="no"?>
<!DOCTYPE svg PUBLIC "-//W3C//DTD SVG 1.1//EN" "http://www.w3.org/Graphics/SVG/1.1/DTD/svg11.dtd">
<!-- Created with Vectornator (http://vectornator.io/) -->
<svg stroke-miterlimit="10" style="fill-rule:nonzero;clip-rule:evenodd;stroke-linecap:round;stroke-linejoin:round;" version="1.1" viewBox="0 0 80 80" xml:space="preserve" xmlns="http://www.w3.org/2000/svg" xmlns:xlink="http://www.w3.org/1999/xlink">
<defs/>
<g id="Layer-1">
<path d="M2.227 39.9993C2.227 18.7265 19.2548 1.48156 40.2598 1.48156C61.2647 1.48156 78.2925 18.7265 78.2925 39.9993C78.2925 61.272 61.2647 78.5169 40.2598 78.5169C19.2548 78.5169 2.227 61.272 2.227 39.9993Z" fill="#dddddd" fill-rule="nonzero" opacity="1" stroke="none"/>
<path d="M39.5838 14.7487C39.5838 15.1702 39.5838 15.592 39.5838 16.0136C39.1796 16.0136 38.7752 16.0136 38.3708 16.0136C37.9666 16.0136 37.5622 16.0136 37.1577 16.0136C37.1577 16.2407 37.1577 16.4676 37.1577 16.6947C37.1577 16.9219 37.1577 17.1488 37.1577 17.3759C37.5622 17.3759 37.9666 17.3759 38.3708 17.3759C38.7752 17.3759 39.1796 17.3759 39.5838 17.3759C39.5838 17.7975 39.5838 18.2192 39.5838 18.6408C39.5838 19.0626 39.5838 19.4842 39.5838 19.9059C39.8016 19.9059 40.0194 19.9059 40.237 19.9059C40.4548 19.9059 40.6726 19.9059 40.8902 19.9059C40.8902 19.4842 40.8902 19.0626 40.8902 18.6408C40.8902 18.2192 40.8902 17.7975 40.8902 17.3759C41.2946 17.3759 41.699 17.3759 42.1032 17.3759C42.5076 17.3759 42.912 17.3759 43.3162 17.3759C43.3162 17.1488 43.3162 16.9219 43.3162 16.6947C43.3162 16.4676 43.3162 16.2407 43.3162 16.0136C42.912 16.0136 42.5076 16.0136 42.1032 16.0136C41.699 16.0136 41.2946 16.0136 40.8902 16.0136C40.8902 15.592 40.8902 15.1702 40.8902 14.7487C40.8902 14.3269 40.8902 13.9053 40.8902 13.4836C40.6726 13.4836 40.4548 13.4836 40.237 13.4836C40.0194 13.4836 39.8016 13.4836 39.5838 13.4836C39.5838 13.9053 39.5838 14.3269 39.5838 14.7487ZM23.3058 21.7975C22.8081 22.1219 22.4349 22.5759 22.1861 23.1596C21.9373 23.7436 21.7507 28.3819 21.6262 37.0746C21.5018 45.7674 21.8061 43.6749 22.1172 45.8803C22.4281 48.086 22.7704 49.7402 23.1437 50.8431C23.5169 51.9459 23.9834 53.0163 24.5433 54.0541C25.1032 55.0921 26.1917 56.5517 27.8092 58.433C29.4264 60.3143 31.106 61.8713 32.8479 63.1038C34.5897 64.3364 35.9893 65.2122 37.0469 65.731C38.1043 66.25 38.8819 66.542 39.3797 66.6068C39.8772 66.6718 40.9659 66.2825 42.6455 65.4391C44.3251 64.5958 46.0047 63.5578 47.6843 62.3254C49.3639 61.0927 50.7945 59.7953 51.9765 58.433C53.1584 57.0707 54.216 55.5139 55.1491 53.7623C56.0822 52.0108 56.8287 49.8701 57.3885 47.3401C57.9484 44.8101 58.0173 46.5134 58.0173 37.3665C58.0173 28.2197 57.7995 23.3543 57.3641 22.7705C56.9287 22.1866 56.4931 21.7975 56.0578 21.6029C55.6224 21.4082 54.8759 21.3757 53.8183 21.5054C52.7607 21.6353 51.7655 21.8947 50.8324 22.284C49.8993 22.6731 48.904 22.9652 47.8464 23.1596C46.7889 23.3543 45.6691 23.4192 44.4873 23.3543C43.3054 23.2895 42.3411 23.0299 41.5947 22.5759C40.8482 22.1219 39.9772 22.0894 38.982 22.4787C37.9867 22.8678 36.618 23.0949 34.8763 23.1596C33.1346 23.2246 31.2372 22.9327 29.1844 22.284C27.1315 21.6353 25.7631 21.311 25.0787 21.311C24.3944 21.311 23.8035 21.4732 23.3058 21.7975ZM25.8134 23.5334C26.6221 23.5982 28.0217 23.9226 30.0124 24.5065C32.0029 25.0902 33.5582 25.3823 34.6779 25.3823C35.7977 25.3823 37.104 25.2524 38.597 24.993C38.9303 24.9352 39.2496 24.89 39.5551 24.8581C40.6175 24.7465 41.5112 24.7915 42.2361 24.993C43.1692 25.2524 44.2266 25.3823 45.4086 25.3823C46.5905 25.3823 48.3012 25.058 50.5407 24.4091C52.7801 23.7604 54.2108 23.4685 54.833 23.5334C55.455 23.5982 55.9215 23.7929 56.2326 24.1172C56.5435 24.4415 56.7613 24.993 56.8858 25.7714C57.0101 26.55 57.0724 30.1122 57.0724 37.5076C57.0724 44.9028 55.7627 49.2188 55.0784 50.7758C54.394 52.3326 53.7099 53.6301 53.0255 54.6679C52.3412 55.7059 51.1593 57.0358 49.4797 58.6575C49.1959 58.9317 50.2292 57.8786 49.94 58.1378C48.7232 59.2288 46.4931 61.1547 44.9031 62.2619C44.6349 62.4487 44.3848 62.6122 44.1611 62.7445C42.2948 63.8473 40.9573 64.4689 40.1487 64.5338C39.3401 64.5988 38.6869 64.4959 38.1892 64.3015C37.6915 64.1068 36.4475 63.3607 34.4568 62.0633C32.4661 60.766 30.7865 59.3712 29.418 57.8791C28.0495 56.3871 26.8365 54.5707 25.7789 52.43C24.7213 50.2893 24.006 48.2133 23.6328 46.2023C23.2595 44.1912 22.9208 43.9572 22.9208 38.9621C22.9208 33.967 22.983 34.1992 23.1074 30.3068C23.2317 26.4145 23.5117 24.7336 23.9472 24.2146C24.3826 23.6956 25.0046 23.4685 25.8134 23.5334Z" fill="#000000" fill-rule="nonzero" opacity="1" stroke="none"/>
<clipPath id="ClipPath">
<path d="M40.237 28.098L58.458 28.098L58.458 28.098L58.458 55.3933L58.458 55.3933L40.237 55.3933L40.237 55.3933L40.237 28.098L40.237 28.098Z"/>
</clipPath>
<g clip-path="url(#ClipPath)">
<path d="M53.2295 33.6199C53.2295 33.8325 53.1687 33.9387 53.0474 33.9387C52.4022 34.0146 51.9127 34.1152 51.5789 34.2404C51.2448 34.3657 51.0115 34.5364 50.8787 34.7527C50.7458 34.969 50.6795 35.3428 50.6795 35.8739L50.6795 45.9486C50.6795 47.3602 50.3701 48.7282 49.7517 50.0526C49.1332 51.3769 48.3136 52.4393 47.2927 53.2401C46.2719 54.0407 45.2153 54.441 44.1224 54.441C43.4849 54.441 42.9801 54.3063 42.6084 54.037C42.2364 53.7675 42.0506 53.409 42.0506 52.9611C42.0506 52.5362 42.206 52.1833 42.5173 51.9024C42.8284 51.6217 43.2268 51.4812 43.7126 51.4812C43.9554 51.4812 44.1717 51.5307 44.3615 51.6292C44.5511 51.7279 44.7788 51.9328 45.0445 52.2439C45.4012 52.6765 45.7389 52.8928 46.0577 52.8928C46.7558 52.8928 47.3136 52.3445 47.7311 51.2479C48.1484 50.1512 48.3572 48.5974 48.3572 46.5861L48.3572 35.8739C48.3572 35.3503 48.2945 34.9804 48.1693 34.7641C48.0441 34.5478 47.8145 34.3752 47.4807 34.246C47.1466 34.1171 46.6571 34.0146 46.0121 33.9387C45.8907 33.9387 45.83 33.8325 45.83 33.6199C45.83 33.4075 45.8907 33.3012 46.0121 33.3012C46.5205 33.3012 47.1238 33.3239 47.8222 33.3695C48.4899 33.415 49.0554 33.4378 49.5184 33.4378C49.9812 33.4378 50.5504 33.415 51.226 33.3695C51.9318 33.3239 52.5388 33.3012 53.0474 33.3012C53.1687 33.3012 53.2295 33.4075 53.2295 33.6199Z" fill="#000000" fill-rule="nonzero" opacity="1" stroke="#000000" stroke-linecap="round" stroke-linejoin="round" stroke-width="0.1"/>
</g>
</g>
</svg>
