<?xml version="1.0" encoding="UTF-8" standalone="no"?>
<!DOCTYPE svg PUBLIC "-//W3C//DTD SVG 1.1//EN" "http://www.w3.org/Graphics/SVG/1.1/DTD/svg11.dtd">
<!-- Created with Vectornator (http://vectornator.io/) -->
<svg stroke-miterlimit="10" style="fill-rule:nonzero;clip-rule:evenodd;stroke-linecap:round;stroke-linejoin:round;" version="1.1" viewBox="0 0 72 72" xml:space="preserve" xmlns="http://www.w3.org/2000/svg" xmlns:xlink="http://www.w3.org/1999/xlink">
<defs/>
<g id="color">
<path d="M20.671 18.25L17.0687 19.8302L13.0044 23.5L12.5792 27.8426L10.0877 35.0569L9.6626 44.1666L11.585 49.6103L16.5265 53L21.0606 51.9195L22.5043 49.0833L21.9081 46.1025C21.9081 46.1025 19.3178 44.0228 18.4584 47.2359C18.2202 48.1263 17.3201 48.7455 16.4408 48.4692C16.0867 48.358 15.7022 48.1297 15.3064 47.7186C12.4096 44.7106 16.6502 41.5961 16.6502 41.5961L18.2916 39.3332C18.2916 39.3332 22.331 41.3702 24.876 40.0832L24.876 43L26.2249 50.5038L26.5756 53.124L24.876 56.3334L25.398 57.4911L32.2416 57.4911L33.1004 55.7651C33.1004 55.7651 32.6894 46.803 33.7218 44.7349C34.7542 42.6668 33.7218 44.7349 33.7218 44.7349L37.685 46.2878L44.3154 45.5323L49.3302 44.5836C52.6223 45.0515 54.6281 46.3563 54.7193 48.9067L55.0832 53.1296L53.3973 56.424L53.421 58L58.9981 58.2008L61.2712 56.525L61.1807 41.0016L61.2712 34.022L60.7418 28.6403L57.7136 23.7977L52.5215 19.8103L47.6255 19.4445L41.0439 20.6431L34.8118 20.6677L30.9972 18.4505L26.671 16.9844L22.388 18.054L20.671 18.25Z" fill="#fba92c" fill-rule="nonzero" opacity="1" stroke="none"/>
<path d="M47.671 44.1667L48.7543 48.0834L48.3005 52.3334L46.6011 56.6667L50.406 58.2044L52.9694 57.8729L53.3974 56.424L55.4627 53.2917L55.1294 48.8334L53.9627 46.0417L51.0319 44.5L47.671 44.1667Z" fill="#824e00" fill-rule="nonzero" opacity="1" stroke="none"/>
<path d="M16.3259 26.0441C16.3259 25.4977 16.7689 25.0547 17.3153 25.0547C17.8617 25.0547 18.3047 25.4977 18.3047 26.0441C18.3047 26.5905 17.8617 27.0335 17.3153 27.0335C16.7689 27.0335 16.3259 26.5905 16.3259 26.0441Z" fill="#000000" fill-rule="nonzero" opacity="1" stroke="#000000" stroke-linecap="butt" stroke-linejoin="round" stroke-width="1"/>
<path d="M32.6838 48.1117L32.9339 57.2353L35.2643 57.3064L35.5384 52.2028C35.5384 52.2028 34.3815 51.3742 34.9991 46.0459C35.2308 44.0478 34.8039 44.7828 34.5248 44.7204C34.0596 44.6165 33.5142 44.803 33.5142 44.803L32.6838 48.1117Z" fill="#824e00" fill-rule="nonzero" opacity="1" stroke="none"/>
</g>
<g id="line">
<path d="M21.2018 46.7173C22.4859 49.0171 21.8723 50.8848 20.895 51.8116C19.8368 52.8151 17.7711 53.2638 16.3609 52.8921C3.7156 49.5593 12.4136 27.7347 12.4136 27.7347C13.0288 18.5071 20.4988 18.8586 20.4988 18.8586C20.4988 18.8586 27.4093 14.2897 31.5174 19.0248C32.7473 20.4424 33.293 22.3244 33.2371 24.2003C33.15 27.1276 36.1188 31.158 31.5845 34.5587C29.8345 35.8712 30.6375 39.6667 27.0845 40.142C27.0845 40.142 21.9927 40.6617 21.9048 32.6645" fill="none" opacity="1" stroke="#000000" stroke-linecap="round" stroke-linejoin="round" stroke-width="2"/>
<path d="M25.3153 40.5458C25.3153 40.5458 25.0039 42.9975 26.4101 53.016L24.8996 55.6137C24.3909 56.4885 24.9625 57.6013 25.9709 57.6851C27.1958 57.7869 29.9208 57.8626 31.2322 57.6985C32.2436 57.5719 33.0578 56.6688 32.935 55.6569C32.0797 48.6107 33.5564 44.6267 33.5564 44.6267C38.2171 48.1999 44.7794 44.8229 48.4705 44.4713C49.2087 44.401 50.5092 44.6384 51.1232 44.8148C53.4363 45.4791 54.9759 46.9376 54.9177 53.4042L53.3642 55.9676C52.8731 56.8743 53.521 58.0047 54.5294 58.2202C55.6296 58.4554 58.6889 58.1685 59.5979 57.9677C61.3277 57.5857 61.2486 55.7591 61.3552 53.9909C61.5825 50.221 61.2577 44.9767 61.0498 42.2468C60.9741 41.2532 61.0052 40.2607 61.1515 39.275C61.5226 36.7744 64.3419 26.727 52.9803 20.0664C48.8738 17.659 44.7566 20.4336 40.2376 21.2201C37.5218 21.6928 34.4947 21.0492 31.7049 19.2505" fill="none" opacity="1" stroke="#000000" stroke-linecap="round" stroke-linejoin="round" stroke-width="2"/>
<path d="M18.1259 35.9077C18.1259 35.9077 18.3017 46.7172 5.1193 47.0688" fill="none" opacity="1" stroke="#000000" stroke-linecap="round" stroke-linejoin="round" stroke-width="2"/>
<path d="M60.2475 27.1479C64.1392 29.8665 66.7927 34.1803 64.703 40.9997" fill="none" opacity="1" stroke="#000000" stroke-linecap="round" stroke-linejoin="round" stroke-width="2"/>
<path d="M48.3345 45.4566L48.6952 50.3078C48.7525 51.0782 48.5797 51.848 48.205 52.4913L47.4119 53.8532C47.2201 54.1826 47.0771 54.678 46.9951 55.2216C46.7821 56.6361 48.5105 57.7872 49.7643 57.7872L53.3301 57.8754" fill="none" opacity="1" stroke="#000000" stroke-linecap="round" stroke-linejoin="round" stroke-width="2"/>
<path d="M34.2489 45.9476L35.0009 52.7886L35.262 53.6598C35.4738 54.0399 35.5969 54.4846 35.6788 55.0282C35.7939 55.7924 35.4153 56.3338 34.7978 56.7224C34.5918 56.852 34.2717 57.0023 34.0513 57.0878C33.7092 57.2206 33.3423 57.2913 32.9918 57.2913L31.8819 57.5824" fill="none" opacity="1" stroke="#000000" stroke-linecap="round" stroke-linejoin="round" stroke-width="2"/>
</g>
</svg>
