<?xml version="1.0" encoding="UTF-8" standalone="no"?>
<!DOCTYPE svg PUBLIC "-//W3C//DTD SVG 1.1//EN" "http://www.w3.org/Graphics/SVG/1.1/DTD/svg11.dtd">
<!-- Created with Vectornator (http://vectornator.io/) -->
<svg stroke-miterlimit="10" style="fill-rule:nonzero;clip-rule:evenodd;stroke-linecap:round;stroke-linejoin:round;" version="1.1" viewBox="0 0 160 110" xml:space="preserve" xmlns="http://www.w3.org/2000/svg" xmlns:xlink="http://www.w3.org/1999/xlink">
<defs>
<clipPath id="TextBounds">
<rect height="29.7577" transform="matrix(1 -0 -0 1 -7.15866 -15.9712)" width="64.7942" x="7.15866" y="15.9712"/>
</clipPath>
</defs>
<g id="Layer-3"/>
<g id="color">
<path d="M28.246 2.10607C34.6755 2.10607 58.1236 4.16254 62.7736 9.68155C66.8257 14.4909 81.0063 16.1325 92.7209 17.986C99.3995 19.0427 105.277 20.1683 108.018 21.989C120.447 30.2429 130.85 27.63 140.31 36.5814C145.047 41.0648 146.028 48.071 146.028 54.9374C146.028 62.5466 145.504 80.0848 144.046 85.1647C141.945 92.4836 139.985 103.104 133.329 104.59C122.4 107.031 103.534 96.9739 85.533 96.9739C61.8924 96.9739 33.2751 94.0854 21.5586 75.4468C16.5386 67.461 11.7366 50.5016 5.80454 42.8786C4.16298 40.769-8.32644 2.10607 28.246 2.10607Z" fill="#bfbfbf" fill-opacity="0.3" fill-rule="nonzero" opacity="1" stroke="none"/>
<path d="M26.6801 11.5031C33.1018 11.1881 69.8105 6.06574 76.761 8.00804C78.1794 8.4044 105.772 4.13766 124.839 12.8238C139.789 19.6345 146.581 39.238 150.927 42.9637C155.878 47.2095 153.433 59.308 153.769 66.1661C153.911 69.056 153.956 87.6925 144.943 93.5782C130.254 103.171 102.076 100.485 89.6385 101.095C75.364 101.796 58.5335 105.376 42.0152 100.913C31.2098 97.9937 18.6197 89.3195 13.6307 82.1846C8.22548 74.4543-9.84851 13.295 26.6801 11.5031Z" fill="#bfbfbf" fill-opacity="0.3" fill-rule="nonzero" opacity="1" stroke="none"/>
</g>
<g id="line">
<g opacity="1">
<path d="M75.7725 34.8458L70.576 37.1253L64.713 42.4192L64.0996 48.6837L60.5054 59.0908L59.8922 72.2321L62.6654 80.085L69.7938 84.9749L76.3346 83.4162L78.4172 79.3248L77.5571 75.0248C77.5571 75.0248 73.8205 72.0247 72.5807 76.6598C72.2371 77.9443 70.9387 78.8375 69.6702 78.4389C69.1594 78.2785 68.6047 77.9492 68.0338 77.3561C63.8549 73.0169 69.9723 68.524 69.9723 68.524L72.3401 65.2596C72.3401 65.2596 78.1672 68.1981 81.8385 66.3416L81.8385 70.5492L83.7844 81.374L84.2903 85.1538L81.8385 89.7835L82.5915 91.4536L92.4639 91.4536L93.7028 88.9637C93.7028 88.9637 93.1099 76.0353 94.5992 73.0519C96.0885 70.0686 94.5992 73.0519 94.5992 73.0519L100.316 75.2921L109.881 74.2022L117.115 72.8337C121.864 73.5087 124.758 75.3909 124.889 79.07L125.414 85.1618L122.982 89.9142L123.017 92.1877L131.062 92.4774L134.341 90.0599L134.21 67.6664L134.341 57.5979L133.577 49.8344L129.209 42.8487L121.719 37.0966L114.656 36.5689L105.162 38.298L96.1716 38.3335L90.6688 35.135L84.4279 33.0201L78.2494 34.563L75.7725 34.8458Z" fill="#fba92c" fill-rule="nonzero" opacity="1" stroke="none"/>
<path d="M114.722 72.2323L116.285 77.8824L115.63 84.0133L113.178 90.2643L118.667 92.4826L122.365 92.0044L122.982 89.9142L125.962 85.3957L125.481 78.9643L123.798 74.9371L119.57 72.7131L114.722 72.2323Z" fill="#824e00" fill-rule="nonzero" opacity="1" stroke="none"/>
<path d="M69.5045 46.0893C69.5045 45.301 70.1435 44.662 70.9317 44.662C71.72 44.662 72.359 45.301 72.359 46.0893C72.359 46.8775 71.72 47.5166 70.9317 47.5166C70.1435 47.5166 69.5045 46.8775 69.5045 46.0893Z" fill="#000000" fill-rule="nonzero" opacity="1" stroke="#000000" stroke-linecap="butt" stroke-linejoin="round" stroke-width="1"/>
<path d="M93.1017 77.9233L93.4626 91.0846L96.8243 91.1871L97.2197 83.8249C97.2197 83.8249 95.5508 82.6296 96.4418 74.9431C96.7759 72.0607 96.1602 73.121 95.7575 73.0311C95.0865 72.8811 94.2997 73.1502 94.2997 73.1502L93.1017 77.9233Z" fill="#824e00" fill-rule="nonzero" opacity="1" stroke="none"/>
<path d="M76.5383 75.9117C78.3907 79.2293 77.5055 81.9236 76.0957 83.2605C74.5692 84.7082 71.5892 85.3554 69.5549 84.8192C51.3133 80.0115 63.8607 48.5281 63.8607 48.5281C64.7482 35.2166 75.5241 35.7237 75.5241 35.7237C75.5241 35.7237 85.493 29.1328 91.4192 35.9635C93.1934 38.0084 93.9806 40.7234 93.9 43.4295C93.7743 47.6523 98.057 53.4664 91.516 58.3721C88.9915 60.2655 90.1499 65.7407 85.0244 66.4264C85.0244 66.4264 77.6792 67.1761 77.5524 55.6396" fill="none" opacity="1" stroke="#000000" stroke-linecap="round" stroke-linejoin="round" stroke-width="2"/>
<path d="M82.4722 67.0089C82.4722 67.0089 82.023 70.5456 84.0516 84.998L81.8726 88.7453C81.1387 90.0073 81.9633 91.6126 83.418 91.7334C85.185 91.8803 89.116 91.9895 91.0078 91.7528C92.4668 91.5701 93.6413 90.2674 93.4642 88.8076C92.2303 78.643 94.3606 72.8959 94.3606 72.8959C101.084 78.0504 110.55 73.1789 115.875 72.6717C116.94 72.5703 118.816 72.9127 119.702 73.1672C123.039 74.1255 125.26 76.2295 125.176 85.558L122.935 89.2558C122.226 90.5638 123.161 92.1945 124.615 92.5054C126.203 92.8447 130.616 92.4308 131.927 92.1411C134.422 91.5901 134.308 88.9551 134.462 86.4043C134.79 80.966 134.321 73.4008 134.022 69.4627C133.912 68.0294 133.957 66.5976 134.168 65.1757C134.704 61.5684 138.771 47.0744 122.381 37.466C116.457 33.9932 110.518 37.9957 103.999 39.1303C100.081 39.8122 95.7141 38.8838 91.6897 36.2891" fill="none" opacity="1" stroke="#000000" stroke-linecap="round" stroke-linejoin="round" stroke-width="2"/>
<path d="M72.1011 60.3181C72.1011 60.3181 72.3547 75.9115 53.3382 76.4187" fill="none" opacity="1" stroke="#000000" stroke-linecap="round" stroke-linejoin="round" stroke-width="2"/>
<path d="M132.864 47.6815C138.478 51.6033 142.306 57.8262 139.292 67.6637" fill="none" opacity="1" stroke="#000000" stroke-linecap="round" stroke-linejoin="round" stroke-width="2"/>
<path d="M115.679 74.093L116.199 81.0912C116.282 82.2026 116.033 83.313 115.492 84.241L114.348 86.2057C114.071 86.6809 113.865 87.3955 113.747 88.1797C113.439 90.2202 115.933 91.8807 117.742 91.8807L122.885 92.008" fill="none" opacity="1" stroke="#000000" stroke-linecap="round" stroke-linejoin="round" stroke-width="2"/>
<path d="M95.3595 74.8014L96.4443 84.6699L96.8211 85.9268C97.1265 86.4751 97.3041 87.1166 97.4223 87.9008C97.5883 89.0031 97.0422 89.7842 96.1513 90.3447C95.8542 90.5316 95.3924 90.7484 95.0745 90.8719C94.581 91.0634 94.0517 91.1654 93.546 91.1654L91.9449 91.5852" fill="none" opacity="1" stroke="#000000" stroke-linecap="round" stroke-linejoin="round" stroke-width="2"/>
</g>
</g>
<g id="Layer-1">
<path d="M16.6404 10.0106C16.4551 10.0106 16.3056 10.0728 16.1997 10.1428C16.1467 10.1778 16.1204 10.1959 16.0675 10.2309C16.1999 10.3708 16.3317 10.4876 16.4641 10.6276C16.7289 10.9074 17.8015 11.8025 19.6813 13.2718C21.5612 14.7411 22.6338 15.5169 22.8985 15.5635C23.1633 15.6102 23.3391 15.5894 23.4714 15.5195C23.6038 15.4495 23.6742 15.3483 23.6477 15.255C23.6213 15.1617 22.4783 14.2692 20.2543 12.5667C18.0302 10.8642 16.8257 10.0106 16.6404 10.0106ZM11.0277 15.7398C10.8689 15.7398 10.7194 15.7995 10.587 15.9161C10.4546 16.0327 10.4107 16.2143 10.4107 16.4009C10.4107 16.5875 10.4898 16.7042 10.6752 16.7975C10.8605 16.8908 11.8716 17.2074 13.672 17.7671C15.4724 18.3268 16.4394 18.6278 16.6248 18.6044C16.8101 18.5811 16.9596 18.5007 17.0655 18.3841C17.1714 18.2675 17.2242 18.1299 17.1977 17.9434C17.1712 17.7568 17.0833 17.6374 16.9773 17.5908C16.8714 17.5442 16.3263 17.3626 15.3467 17.106C14.3671 16.8495 13.444 16.5511 12.5702 16.2246C11.6965 15.8981 11.1866 15.7398 11.0277 15.7398ZM16.0959 20.5499C15.99 20.5733 15.9109 20.6329 15.8315 20.7262C15.7521 20.8195 15.6993 20.8974 15.6993 20.9906C15.6993 21.0839 15.7873 21.2058 15.9196 21.2991C16.052 21.3924 16.2191 21.3691 16.4044 21.2991C16.5898 21.2292 16.6688 21.1539 16.6688 20.9906C16.6688 20.8274 16.5809 20.708 16.4485 20.6381C16.3161 20.5681 16.2018 20.5266 16.0959 20.5499ZM14.8179 21.7399C14.6325 21.8098 14.5094 21.9292 14.5094 22.0924C14.5094 22.2557 14.5621 22.3543 14.6416 22.4009C14.721 22.4476 14.8353 22.4891 14.9941 22.4891C15.153 22.4891 15.2673 22.4061 15.3467 22.3128C15.4261 22.2195 15.4613 22.1209 15.4349 22.0043C15.4084 21.8877 15.3645 21.8098 15.2586 21.7399C15.1527 21.6699 15.0032 21.6699 14.8179 21.7399ZM13.8042 22.7976C13.6983 22.8209 13.6016 22.8987 13.4957 23.062C13.3898 23.2252 13.337 23.3446 13.3635 23.4146C13.39 23.4845 13.5131 23.5235 13.672 23.5468C13.8309 23.5701 13.9627 23.5727 14.0686 23.5027C14.1746 23.4327 14.2009 23.3341 14.2009 23.1942C14.2009 23.0543 14.1481 22.9116 14.0686 22.8416C13.9892 22.7717 13.9101 22.7742 13.8042 22.7976ZM14.9501 23.8553C14.7647 23.8553 14.6505 23.8968 14.5975 23.9434C14.5445 23.9901 14.5094 24.0887 14.5094 24.2519C14.5094 24.4152 14.5446 24.5138 14.5975 24.5604C14.6505 24.6071 14.7295 24.6693 14.8619 24.6926C14.9943 24.7159 15.1527 24.6744 15.2586 24.6045C15.3645 24.5345 15.4084 24.4567 15.4349 24.3401C15.4613 24.2234 15.4261 24.1249 15.3467 24.0316C15.2673 23.9383 15.1354 23.8553 14.9501 23.8553ZM13.672 24.9571C13.5131 24.9804 13.3724 25.0193 13.3194 25.0893C13.2665 25.1592 13.2313 25.2812 13.2313 25.3978C13.2313 25.5144 13.2841 25.5922 13.3635 25.6622C13.4429 25.7322 13.5572 25.7503 13.7161 25.7503C13.8749 25.7503 13.9892 25.7322 14.0686 25.6622C14.1481 25.5922 14.2009 25.5144 14.2009 25.3978C14.2009 25.2812 14.1746 25.1385 14.0686 25.0452C13.9627 24.9519 13.8309 24.9337 13.672 24.9571ZM12.3939 26.1029C12.1821 26.1496 12.0678 26.2507 12.0414 26.3673C12.0149 26.4839 11.9884 26.5825 12.0414 26.6758C12.0943 26.7691 12.2527 26.8288 12.438 26.8521C12.6233 26.8754 12.7552 26.8339 12.8347 26.764C12.9141 26.694 12.9228 26.5954 12.9228 26.4555C12.9228 26.3155 12.9141 26.2169 12.8347 26.147C12.7552 26.077 12.6058 26.0563 12.3939 26.1029ZM13.6279 27.1165C13.4956 27.1399 13.3724 27.1788 13.3194 27.2488C13.2665 27.3187 13.2489 27.4381 13.2754 27.6013C13.3018 27.7646 13.4074 27.8632 13.5398 27.9098C13.6722 27.9565 13.8216 27.959 13.9805 27.8658C14.1394 27.7725 14.1833 27.6324 14.1568 27.4691C14.1303 27.3059 14.0864 27.2073 13.9805 27.1606C13.8746 27.114 13.7603 27.0932 13.6279 27.1165ZM12.3939 28.2624C12.1821 28.309 12.0678 28.4309 12.0414 28.5709C12.0149 28.7108 11.9884 28.8094 12.0414 28.8794C12.0943 28.9494 12.2438 28.9675 12.4821 28.9675C12.7204 28.9675 12.8522 28.8897 12.8787 28.7031C12.9052 28.5165 12.9141 28.3764 12.8347 28.3065C12.7552 28.2365 12.6058 28.2158 12.3939 28.2624ZM11.5125 29.3201C11.4463 29.3434 11.3584 29.3849 11.2922 29.4082C11.1598 29.4549 11.1159 29.5717 11.1159 29.8049C11.1159 29.9215 11.1159 30.0409 11.1159 30.1575C11.1953 30.1458 11.2568 30.1251 11.3362 30.1134C11.4951 30.0901 11.5918 30.0511 11.6447 29.9812C11.6977 29.9112 11.7242 29.8152 11.6447 29.6286C11.605 29.5353 11.5522 29.4134 11.5125 29.3201ZM13.7161 29.3201C13.5572 29.3201 13.4429 29.3824 13.3635 29.4523C13.2841 29.5223 13.2665 29.6183 13.3194 29.8049C13.3724 29.9915 13.5131 30.0901 13.672 30.1134C13.8309 30.1367 13.9451 30.16 14.0246 30.1134C14.104 30.0667 14.1303 29.9682 14.1568 29.8049C14.1833 29.6416 14.1481 29.5223 14.0686 29.4523C13.9892 29.3823 13.8749 29.3201 13.7161 29.3201ZM12.438 30.4219C12.3056 30.4452 12.1649 30.5049 12.0854 30.5982C12.006 30.6915 12.006 30.8315 12.0854 30.9948C12.1649 31.1581 12.2967 31.2152 12.4821 31.2152C12.6674 31.2152 12.7817 31.1737 12.8347 31.127C12.8876 31.0804 12.9228 30.9818 12.9228 30.8185C12.9228 30.6553 12.8965 30.5359 12.7906 30.466C12.6847 30.396 12.5704 30.3986 12.438 30.4219ZM14.8179 30.466C14.6325 30.5359 14.5094 30.6553 14.5094 30.8185C14.5094 30.9818 14.5446 31.0804 14.5975 31.127C14.6505 31.1737 14.7647 31.2152 14.9501 31.2152C15.1354 31.2152 15.2673 31.1762 15.3467 31.083C15.4261 30.9897 15.4613 30.891 15.4349 30.7745C15.4084 30.6578 15.3645 30.5359 15.2586 30.466C15.1527 30.396 15.0032 30.396 14.8179 30.466ZM11.0277 31.4796C11.041 31.6195 11.0586 31.7803 11.0718 31.9203C11.085 32.0602 11.1026 32.177 11.1159 32.3169C11.1953 32.3053 11.2568 32.3286 11.3362 32.3169C11.4951 32.2936 11.5918 32.2547 11.6447 32.1847C11.6977 32.1148 11.7153 31.9721 11.6888 31.8322C11.6623 31.6922 11.636 31.6144 11.5566 31.5677C11.4772 31.5211 11.3805 31.4796 11.2481 31.4796C11.1819 31.4796 11.0939 31.4796 11.0277 31.4796ZM13.7161 31.4796C13.5572 31.4796 13.4429 31.5418 13.3635 31.6118C13.2841 31.6818 13.2313 31.7804 13.2313 31.9203C13.2313 32.0602 13.2841 32.1588 13.3635 32.2288C13.4429 32.2988 13.5572 32.3169 13.7161 32.3169C13.8749 32.3169 13.9892 32.2988 14.0686 32.2288C14.1481 32.1588 14.2009 32.0603 14.2009 31.9203C14.2009 31.7804 14.1481 31.6818 14.0686 31.6118C13.9892 31.5418 13.8749 31.4796 13.7161 31.4796ZM12.4821 32.6254C12.2967 32.6254 12.1825 32.6229 12.1295 32.6695C12.0766 32.7162 12.0678 32.8174 12.0414 32.9339C12.0149 33.0506 12.006 33.1492 12.0854 33.2424C12.1649 33.3357 12.3056 33.3954 12.438 33.4187C12.5704 33.442 12.6847 33.4446 12.7906 33.3747C12.8965 33.3047 12.9228 33.1853 12.9228 33.0221C12.9228 32.8588 12.8876 32.7162 12.8347 32.6695C12.7817 32.6229 12.6674 32.6254 12.4821 32.6254ZM14.9501 32.6254C14.7647 32.6254 14.6505 32.6229 14.5975 32.6695C14.5445 32.7162 14.5094 32.8588 14.5094 33.0221C14.5094 33.1853 14.5446 33.2839 14.5975 33.3306C14.6505 33.3772 14.7295 33.3954 14.8619 33.4187C14.9943 33.442 15.1527 33.4446 15.2586 33.3747C15.3645 33.3047 15.4084 33.1827 15.4349 33.0662C15.4613 32.9496 15.4261 32.8509 15.3467 32.7577C15.2673 32.6644 15.1354 32.6254 14.9501 32.6254ZM13.672 33.6832C13.5131 33.7065 13.3724 33.7895 13.3194 33.8594C13.2665 33.9294 13.2313 34.0073 13.2313 34.1239C13.2313 34.2405 13.2841 34.3183 13.3635 34.3883C13.4429 34.4583 13.5572 34.5205 13.7161 34.5205C13.8749 34.5205 13.9892 34.4582 14.0686 34.3883C14.1481 34.3183 14.2009 34.2405 14.2009 34.1239C14.2009 34.0073 14.1746 33.9087 14.0686 33.8154C13.9627 33.7221 13.8309 33.6598 13.672 33.6832ZM14.9941 34.7849C14.8353 34.7849 14.721 34.8031 14.6416 34.8731C14.5621 34.943 14.5094 35.0857 14.5094 35.2256C14.5094 35.3656 14.5621 35.4642 14.6416 35.5341C14.721 35.6041 14.8705 35.6249 15.0823 35.5782C15.2941 35.5316 15.4084 35.4097 15.4349 35.2697C15.4613 35.1298 15.4261 35.0104 15.3467 34.9171C15.2673 34.8239 15.153 34.7849 14.9941 34.7849ZM12.3939 34.8731C12.1821 34.9197 12.0678 34.9768 12.0414 35.0934C12.0149 35.21 11.9884 35.3086 12.0414 35.4019C12.0943 35.4952 12.2527 35.5549 12.438 35.5782C12.6233 35.6015 12.7552 35.6041 12.8347 35.5341C12.9141 35.4642 12.9228 35.3656 12.9228 35.2256C12.9228 35.0857 12.9141 34.943 12.8347 34.8731C12.7552 34.8031 12.6058 34.8264 12.3939 34.8731ZM13.9805 35.8867C13.8746 35.8401 13.7251 35.8816 13.5398 35.9749C13.3545 36.0681 13.2489 36.2082 13.2754 36.3715C13.3018 36.5348 13.3898 36.6334 13.4957 36.68C13.6016 36.7266 13.7511 36.6851 13.9364 36.5919C14.1218 36.4986 14.1833 36.4025 14.1568 36.2393C14.1303 36.076 14.0864 35.9334 13.9805 35.8867ZM16.0959 35.8867C15.99 35.91 15.9109 35.9697 15.8315 36.063C15.7521 36.1563 15.7169 36.2549 15.7434 36.3715C15.7698 36.4881 15.8578 36.566 15.9637 36.6359C16.0696 36.7059 16.2191 36.7059 16.4044 36.6359C16.5898 36.566 16.6688 36.4466 16.6688 36.2834C16.6688 36.1201 16.5809 36.0007 16.4485 35.9308C16.3161 35.8608 16.2018 35.8634 16.0959 35.8867ZM14.9501 36.9444C14.8177 36.9444 14.721 37.0067 14.6416 37.0766C14.5621 37.1466 14.527 37.2426 14.5534 37.4292C14.5799 37.6158 14.6766 37.7585 14.8619 37.7818C15.0473 37.8051 15.1791 37.7843 15.2586 37.7377C15.338 37.6911 15.4084 37.5692 15.4349 37.4292C15.4613 37.2893 15.4085 37.1699 15.3026 37.0766C15.1967 36.9833 15.0825 36.9444 14.9501 36.9444ZM12.438 36.9885C12.3586 37.0002 12.2971 37.0209 12.2177 37.0326C12.2706 37.1608 12.341 37.3009 12.3939 37.4292C12.4469 37.5575 12.4732 37.6535 12.5262 37.7818C12.5923 37.7585 12.6803 37.761 12.7465 37.7377C12.8789 37.6911 12.9228 37.5925 12.9228 37.4292C12.9228 37.2659 12.9141 37.1466 12.8347 37.0766C12.7552 37.0067 12.5969 36.9652 12.438 36.9885ZM17.2858 37.0766C17.074 37.1466 16.9773 37.2452 16.9773 37.3851C16.9773 37.5251 17.0301 37.6237 17.1096 37.6936C17.189 37.7636 17.3033 37.7818 17.4621 37.7818C17.621 37.7818 17.7353 37.7636 17.8147 37.6936C17.8941 37.6237 17.9469 37.5458 17.9469 37.4292C17.9469 37.3126 17.8765 37.1699 17.7706 37.0766C17.6647 36.9833 17.4977 37.0067 17.2858 37.0766ZM13.7161 38.0903C13.5572 38.0903 13.4429 38.1085 13.3635 38.1784C13.2841 38.2484 13.2665 38.3885 13.3194 38.5751C13.3724 38.7616 13.5131 38.8602 13.672 38.8836C13.8309 38.9069 13.9627 38.8654 14.0686 38.7954C14.1746 38.7255 14.2009 38.6269 14.2009 38.4869C14.2009 38.347 14.1481 38.2484 14.0686 38.1784C13.9892 38.1084 13.8749 38.0903 13.7161 38.0903ZM18.6961 38.0903C18.5108 38.0903 18.3965 38.0877 18.3436 38.1343C18.2906 38.181 18.2378 38.2614 18.2113 38.3547C18.1849 38.448 18.2201 38.5466 18.2995 38.6632C18.3789 38.7798 18.4932 38.8602 18.6521 38.8836C18.8109 38.9069 18.9252 38.8654 19.0046 38.7954C19.0841 38.7255 19.1544 38.6476 19.1809 38.531C19.2074 38.4144 19.1722 38.3158 19.0928 38.2225C19.0133 38.1292 18.8815 38.0903 18.6961 38.0903ZM16.0959 38.1343C15.8841 38.181 15.7698 38.3029 15.7434 38.4428C15.7169 38.5828 15.7345 38.6814 15.7874 38.7513C15.8404 38.8213 15.9371 38.8602 16.0959 38.8836C16.2548 38.9069 16.3867 38.8654 16.4926 38.7954C16.5985 38.7255 16.6688 38.6269 16.6688 38.4869C16.6688 38.347 16.6161 38.2484 16.5366 38.1784C16.4572 38.1084 16.3077 38.0877 16.0959 38.1343ZM17.3299 39.148C17.1975 39.1713 17.1184 39.2102 17.0655 39.2802C17.0125 39.3502 16.9773 39.4721 16.9773 39.5887C16.9773 39.7053 17.0301 39.7832 17.1096 39.8531C17.189 39.9231 17.3033 39.9853 17.4621 39.9853C17.621 39.9853 17.7353 39.9231 17.8147 39.8531C17.8941 39.7831 17.9293 39.6638 17.9028 39.5006C17.8764 39.3373 17.7884 39.2387 17.6825 39.1921C17.5766 39.1454 17.4623 39.1247 17.3299 39.148ZM14.8179 39.2361C14.6325 39.3061 14.5094 39.4254 14.5094 39.5887C14.5094 39.752 14.5446 39.8506 14.5975 39.8972C14.6505 39.9438 14.7647 39.9853 14.9501 39.9853C15.1354 39.9853 15.2673 39.9023 15.3467 39.8091C15.4261 39.7158 15.4613 39.6171 15.4349 39.5006C15.4084 39.3839 15.3645 39.3061 15.2586 39.2361C15.1527 39.1662 15.0032 39.1662 14.8179 39.2361ZM16.0959 40.2938C15.8841 40.3405 15.7698 40.4624 15.7434 40.6023C15.7169 40.7423 15.7345 40.8409 15.7874 40.9108C15.8404 40.9808 15.9547 41.0197 16.14 41.043C16.3253 41.0664 16.4572 41.0689 16.5366 40.999C16.6161 40.929 16.6688 40.7863 16.6688 40.6464C16.6688 40.5065 16.6161 40.4079 16.5366 40.3379C16.4572 40.2679 16.3077 40.2472 16.0959 40.2938ZM18.608 40.2938C18.4226 40.3172 18.3084 40.3743 18.2554 40.5142C18.2025 40.6541 18.2025 40.7735 18.2554 40.8668C18.3084 40.96 18.4226 41.0197 18.608 41.043C18.7933 41.0664 18.9252 41.0456 19.0046 40.999C19.0841 40.9523 19.1544 40.8952 19.1809 40.7786C19.2074 40.662 19.1546 40.5426 19.0487 40.426C18.9428 40.3094 18.7933 40.2705 18.608 40.2938ZM19.9301 41.3515C19.7713 41.3515 19.657 41.4138 19.5775 41.4838C19.4981 41.5537 19.4805 41.6497 19.5335 41.8363C19.5864 42.0229 19.6831 42.1656 19.842 42.1889C20.0008 42.2122 20.1327 42.1707 20.2386 42.1008C20.3445 42.0308 20.4149 41.9322 20.4149 41.7923C20.4149 41.6523 20.3621 41.5537 20.2827 41.4838C20.2033 41.4138 20.089 41.3515 19.9301 41.3515ZM17.374 41.3956C17.1622 41.4189 17.0479 41.5175 17.0214 41.7041C16.9949 41.8907 17.0125 42.01 17.0655 42.0567C17.1184 42.1033 17.2151 42.1656 17.374 42.1889C17.5328 42.2122 17.6471 42.1915 17.7266 42.1448C17.806 42.0982 17.8764 41.9996 17.9028 41.8363C17.9293 41.6731 17.8941 41.5537 17.8147 41.4838C17.7353 41.4138 17.5858 41.3723 17.374 41.3956ZM16.1841 42.4093C16.0782 42.4092 15.9991 42.4482 15.9196 42.5415C15.8402 42.6348 15.8841 42.7956 16.0959 42.9822C16.2018 43.0755 16.3426 43.1533 16.4485 43.2466C16.4882 43.2116 16.4969 43.1934 16.5366 43.1585C16.6161 43.0885 16.6688 42.9899 16.6688 42.85C16.6688 42.71 16.5985 42.5674 16.4926 42.4974C16.3867 42.4274 16.29 42.4093 16.1841 42.4093ZM23.588 42.4533C23.4292 42.4766 23.3325 42.5156 23.2795 42.5855C23.2266 42.6555 23.2001 42.7956 23.2795 42.9822C23.359 43.1687 23.5173 43.2466 23.6762 43.2466C23.835 43.2466 23.9493 43.2284 24.0287 43.1585C24.1082 43.0885 24.1169 42.9666 24.1169 42.85C24.1169 42.7333 24.0906 42.6347 23.9847 42.5415C23.8788 42.4482 23.7469 42.43 23.588 42.4533ZM18.5639 42.4974C18.3521 42.5674 18.2378 42.6685 18.2113 42.7618C18.1849 42.8551 18.2201 42.9537 18.2995 43.0703C18.3789 43.1869 18.5108 43.2466 18.6961 43.2466C18.8815 43.2466 18.9957 43.2492 19.0487 43.2025C19.1016 43.1559 19.1544 43.0547 19.1809 42.9381C19.2074 42.8215 19.1546 42.7021 19.0487 42.5855C18.9428 42.4689 18.7757 42.4274 18.5639 42.4974ZM21.0319 42.4974C20.8201 42.5674 20.741 42.7074 20.7675 42.894C20.7939 43.0806 20.9082 43.1792 21.12 43.2025C21.3318 43.2259 21.4637 43.2492 21.5167 43.2025C21.5696 43.1559 21.6224 43.034 21.6489 42.894C21.6754 42.7541 21.6226 42.6347 21.5167 42.5415C21.4108 42.4482 21.2437 42.4274 21.0319 42.4974ZM17.4621 43.511C17.3033 43.511 17.189 43.5733 17.1096 43.6432C17.0301 43.7132 17.0829 43.83 17.2418 44.0399C17.3212 44.1448 17.3827 44.2875 17.4621 44.3925C17.5416 44.3458 17.6031 44.2628 17.6825 44.2162C17.8413 44.1229 17.8941 44.0061 17.8147 43.8195C17.7353 43.633 17.621 43.511 17.4621 43.511ZM24.9102 43.511C24.7778 43.511 24.637 43.5733 24.5576 43.6432C24.4782 43.7132 24.4695 43.8118 24.4695 43.9517C24.4694 44.0917 24.4782 44.1903 24.5576 44.2602C24.637 44.3302 24.7778 44.3925 24.9102 44.3925C25.0425 44.3925 25.1568 44.3095 25.2627 44.2162C25.3686 44.1229 25.3774 44.0035 25.3509 43.8636C25.3244 43.7237 25.2981 43.6458 25.2187 43.5992C25.1392 43.5525 25.0426 43.511 24.9102 43.511ZM19.842 43.5992C19.6302 43.6458 19.5159 43.7237 19.4894 43.8636C19.4629 44.0035 19.4805 44.1462 19.5335 44.2162C19.5864 44.2861 19.7007 44.3251 19.886 44.3484C20.0714 44.3717 20.2033 44.3302 20.2827 44.2602C20.3621 44.1903 20.4149 44.0917 20.4149 43.9517C20.4149 43.8118 20.3621 43.7132 20.2827 43.6432C20.2033 43.5733 20.0538 43.5525 19.842 43.5992ZM22.31 43.5992C22.0982 43.6458 21.9839 43.747 21.9574 43.8636C21.9309 43.9802 21.9485 44.0788 22.0015 44.1721C22.0544 44.2654 22.1687 44.3251 22.354 44.3484C22.5394 44.3717 22.6712 44.3302 22.7507 44.2602C22.8301 44.1903 22.8564 44.1332 22.8829 44.0399C22.9094 43.9466 22.9006 43.8039 22.7947 43.6873C22.6888 43.5707 22.5218 43.5525 22.31 43.5992ZM21.1641 44.6569C20.9788 44.6569 20.8645 44.6543 20.8115 44.701C20.7586 44.7476 20.7234 44.8903 20.7234 45.0535C20.7234 45.2168 20.7586 45.3154 20.8115 45.362C20.8645 45.4087 20.9436 45.4268 21.076 45.4502C21.2084 45.4735 21.3402 45.4553 21.4726 45.362C21.605 45.2687 21.6402 45.1079 21.5608 44.9213C21.4813 44.7347 21.3494 44.6569 21.1641 44.6569ZM18.4758 44.701C18.3169 44.7709 18.2554 44.8073 18.2554 44.8772C18.2554 44.9472 18.3169 45.0899 18.4758 45.2298C18.6346 45.3697 18.793 45.4061 18.8724 45.4061C18.9518 45.4061 19.0133 45.349 19.0928 45.1857C19.1722 45.0225 19.1194 44.8616 18.9606 44.745C18.8017 44.6284 18.6346 44.631 18.4758 44.701ZM23.6321 44.701C23.3938 44.7243 23.2795 44.8436 23.2795 45.0535C23.2795 45.2634 23.341 45.3595 23.4999 45.4061C23.6587 45.4527 23.7906 45.4527 23.8965 45.4061C24.0024 45.3594 24.0904 45.2609 24.1169 45.0976C24.1434 44.9343 24.1258 44.815 24.0728 44.745C24.0199 44.6751 23.8704 44.6776 23.6321 44.701ZM25.9238 44.701C25.7914 44.7709 25.7299 44.8488 25.7034 44.9654C25.677 45.082 25.6681 45.1806 25.7475 45.2739C25.8269 45.3672 25.9677 45.4268 26.1001 45.4502C26.2325 45.4735 26.3468 45.4761 26.4527 45.4061C26.5586 45.3361 26.5849 45.2168 26.5849 45.0535C26.5849 44.8903 26.5234 44.7709 26.3645 44.701C26.2057 44.631 26.0562 44.631 25.9238 44.701ZM22.3981 45.7146C22.2922 45.7146 22.1955 45.7743 22.0896 45.8909C21.9837 46.0075 21.9661 46.1243 22.0455 46.2875C22.125 46.4508 22.2568 46.5519 22.4422 46.5519C22.6275 46.5519 22.7418 46.5104 22.7947 46.4638C22.8477 46.4172 22.8564 46.36 22.8829 46.2434C22.9094 46.1268 22.8831 46.0075 22.7507 45.8909C22.6183 45.7743 22.504 45.7146 22.3981 45.7146ZM19.842 45.7587C19.6831 45.782 19.604 45.8209 19.5775 45.8909C19.5511 45.9608 19.6654 46.0802 19.9301 46.2434C20.0625 46.3251 20.1944 46.3822 20.3268 46.4638C20.34 46.3705 20.3576 46.2927 20.3708 46.1994C20.3973 46.0128 20.3445 45.8727 20.2386 45.8027C20.1327 45.7328 20.0008 45.7353 19.842 45.7587ZM29.758 45.7587C29.5991 45.782 29.5025 45.8209 29.4495 45.8909C29.3965 45.9608 29.4141 46.0569 29.4936 46.2434C29.573 46.43 29.6873 46.5519 29.8461 46.5519C30.005 46.5519 30.1193 46.4897 30.1987 46.4197C30.2781 46.3498 30.3309 46.2512 30.3309 46.1112C30.3309 45.9713 30.2605 45.8727 30.1546 45.8027C30.0487 45.7328 29.9169 45.7353 29.758 45.7587ZM24.7779 45.8027C24.5661 45.8727 24.487 46.0128 24.5135 46.1994C24.54 46.386 24.6543 46.4846 24.8661 46.5079C25.0779 46.5312 25.2098 46.5104 25.2627 46.4638C25.3157 46.4172 25.3244 46.3393 25.3509 46.1994C25.3774 46.0594 25.3686 45.9401 25.2627 45.8468C25.1568 45.7535 24.9898 45.7328 24.7779 45.8027ZM27.2459 45.8027C27.0341 45.8727 26.8934 45.9713 26.8934 46.1112C26.8934 46.2512 26.9461 46.3498 27.0256 46.4197C27.105 46.4897 27.2193 46.5519 27.3782 46.5519C27.537 46.5519 27.6513 46.4897 27.7307 46.4197C27.8102 46.3498 27.8629 46.2719 27.8629 46.1553C27.8629 46.0387 27.8366 45.9401 27.7307 45.8468C27.6248 45.7535 27.4578 45.7328 27.2459 45.8027ZM23.6762 46.8164C23.5173 46.8164 23.359 46.8346 23.2795 46.9045C23.2001 46.9745 23.2266 47.1146 23.2795 47.3012C23.3325 47.4877 23.4292 47.5863 23.588 47.6097C23.7469 47.633 23.8788 47.6355 23.9847 47.5656C24.0906 47.4956 24.1169 47.397 24.1169 47.2571C24.1169 47.1171 24.1082 46.9745 24.0287 46.9045C23.9493 46.8346 23.835 46.8164 23.6762 46.8164ZM31.1242 46.8164C30.9653 46.8164 30.8511 46.8346 30.7716 46.9045C30.6922 46.9745 30.6746 47.1146 30.7276 47.3012C30.7805 47.4877 30.8772 47.5863 31.0361 47.6097C31.1949 47.633 31.3092 47.6563 31.3886 47.6097C31.4681 47.563 31.5384 47.4203 31.5649 47.2571C31.5914 47.0938 31.5562 46.9745 31.4768 46.9045C31.3973 46.8346 31.2831 46.8164 31.1242 46.8164ZM26.056 46.9045C25.8442 46.9512 25.7299 47.0083 25.7034 47.1249C25.677 47.2415 25.6505 47.3401 25.7034 47.4334C25.7564 47.5267 25.8972 47.5863 26.056 47.6097C26.2149 47.633 26.3468 47.6355 26.4527 47.5656C26.5586 47.4956 26.5849 47.397 26.5849 47.2571C26.5849 47.1171 26.5762 46.9745 26.4967 46.9045C26.4173 46.8346 26.2678 46.8579 26.056 46.9045ZM28.524 46.9045C28.2857 46.9512 28.1714 47.0497 28.1714 47.213C28.1714 47.3763 28.2242 47.4956 28.3036 47.5656C28.3831 47.6355 28.5325 47.6563 28.7444 47.6097C28.9562 47.563 29.0705 47.4411 29.0969 47.3012C29.1234 47.1612 29.0882 47.0419 29.0088 46.9486C28.9294 46.8553 28.7623 46.8579 28.524 46.9045ZM33.504 46.9045C33.2922 46.9512 33.1779 47.029 33.1515 47.1689C33.125 47.3089 33.1426 47.4075 33.1955 47.4774C33.2485 47.5474 33.3452 47.5863 33.504 47.6097C33.6629 47.633 33.7948 47.6355 33.9007 47.5656C34.0066 47.4956 34.077 47.397 34.077 47.2571C34.077 47.1171 34.0242 46.9745 33.9448 46.9045C33.8653 46.8346 33.7159 46.8579 33.504 46.9045ZM36.0161 46.9045C35.7778 46.9512 35.6459 47.0083 35.6195 47.1249C35.593 47.2415 35.6458 47.3608 35.7517 47.4774C35.8576 47.5941 35.963 47.633 36.1483 47.6097C36.3337 47.5863 36.492 47.5266 36.545 47.4334C36.5979 47.3401 36.5803 47.2441 36.5009 47.0808C36.4215 46.9175 36.2544 46.8579 36.0161 46.9045ZM27.29 47.9182C27.1576 47.9415 27.0345 47.9804 26.9815 48.0504C26.9286 48.1203 26.911 48.2397 26.9374 48.4029C26.9639 48.5662 27.0519 48.6648 27.1578 48.7114C27.2637 48.7581 27.4132 48.7166 27.5985 48.6233C27.7838 48.53 27.8453 48.434 27.8189 48.2707C27.7924 48.1075 27.7485 48.0089 27.6426 47.9622C27.5367 47.9156 27.4224 47.8948 27.29 47.9182ZM32.2701 47.9182C32.1377 47.9415 32.041 47.9778 31.9616 48.0944C31.8821 48.211 31.8469 48.3537 31.8734 48.447C31.8999 48.5403 32.0055 48.5974 32.1378 48.6674C32.2702 48.7373 32.3845 48.7788 32.4904 48.7555C32.5963 48.7322 32.6754 48.6518 32.7548 48.5351C32.8343 48.4185 32.8695 48.3199 32.843 48.2267C32.8165 48.1334 32.7285 48.0322 32.6226 47.9622C32.5167 47.8923 32.4024 47.8948 32.2701 47.9182ZM34.738 47.9182C34.6057 47.9415 34.5266 47.9804 34.4736 48.0504C34.4207 48.1203 34.4031 48.2397 34.4295 48.4029C34.456 48.5662 34.4999 48.6648 34.6058 48.7114C34.7117 48.7581 34.8612 48.7166 35.0465 48.6233C35.2319 48.53 35.3374 48.434 35.311 48.2707C35.2845 48.1075 35.1965 48.0089 35.0906 47.9622C34.9847 47.9156 34.8704 47.8948 34.738 47.9182ZM24.7339 47.9622C24.5485 48.0322 24.4695 48.1515 24.4695 48.3148C24.4694 48.4781 24.5133 48.5974 24.6457 48.6674C24.7781 48.7373 24.8924 48.7788 24.9983 48.7555C25.1042 48.7322 25.2274 48.6725 25.3068 48.5792C25.3862 48.4859 25.3774 48.3873 25.3509 48.2707C25.3244 48.1541 25.2805 48.0322 25.1746 47.9622C25.0687 47.8923 24.9192 47.8923 24.7339 47.9622ZM30.1546 47.9622C30.0487 47.8923 29.9257 47.913 29.7139 48.0063C29.5021 48.0996 29.379 48.2189 29.4054 48.3589C29.4319 48.4988 29.5375 48.5974 29.6699 48.6674C29.8022 48.7373 29.9517 48.7373 30.1106 48.6674C30.2694 48.5974 30.3309 48.4781 30.3309 48.3148C30.3309 48.1515 30.2605 48.0322 30.1546 47.9622ZM37.6027 47.9622C37.4703 47.8923 37.3032 47.913 37.1179 48.0063C36.9326 48.0996 36.8711 48.2189 36.8975 48.3589C36.924 48.4988 36.9679 48.5974 37.0738 48.6674C37.1797 48.7373 37.294 48.7788 37.4264 48.7555C37.5588 48.7322 37.6819 48.6933 37.7349 48.6233C37.7878 48.5533 37.779 48.4107 37.779 48.2707C37.779 48.1308 37.7351 48.0322 37.6027 47.9622ZM28.6121 48.9759C28.4798 48.9759 28.3831 49.0381 28.3036 49.1081C28.2242 49.178 28.1714 49.2559 28.1714 49.3725C28.1714 49.4891 28.3209 49.5695 28.6121 49.5929C28.7578 49.6045 28.9072 49.6253 29.0529 49.6369C29.0529 49.5553 29.0529 49.4541 29.0529 49.3725C29.0529 49.2092 29.0001 49.1106 28.9206 49.064C28.8412 49.0174 28.7445 48.9759 28.6121 48.9759ZM31.0801 48.9759C30.9478 48.9759 30.8511 49.0381 30.7716 49.1081C30.6922 49.178 30.6746 49.2741 30.7276 49.4606C30.7805 49.6472 30.93 49.7484 31.1683 49.7251C31.4066 49.7017 31.5384 49.6006 31.5649 49.4606C31.5914 49.3207 31.5386 49.2454 31.4327 49.1521C31.3268 49.0589 31.2125 48.9759 31.0801 48.9759ZM33.504 49.064C33.2922 49.1106 33.1955 49.23 33.1955 49.4166C33.1955 49.5099 33.1955 49.5877 33.1955 49.681C33.3412 49.6693 33.4906 49.6486 33.6363 49.6369C33.9275 49.6136 34.077 49.5565 34.077 49.4166C34.077 49.2766 34.0242 49.178 33.9448 49.1081C33.8653 49.0381 33.7159 49.0174 33.504 49.064Z" fill="#000000" fill-rule="nonzero" opacity="1" stroke="#000000" stroke-linecap="round" stroke-linejoin="round" stroke-width="0.1"/>
<path d="M21.5482 3.9909C21.3602 3.91122 21.1802 3.90099 21.0407 3.91619C20.971 3.9238 20.936 3.92826 20.8663 3.93586C20.9365 4.11425 21.0167 4.27231 21.0869 4.4507C21.1755 4.67606 21.32 5.49652 21.8421 6.41621C22.1465 6.95246 25.1039 11.3474 25.351 11.5017C25.5982 11.6561 25.7859 11.7136 25.9522 11.7098C26.1185 11.706 26.2362 11.6484 26.252 11.5561C26.2679 11.4637 25.5176 10.1975 24.0421 7.76346C22.5666 5.3294 21.7361 4.07058 21.5482 3.9909Z" fill="#000000" fill-rule="nonzero" opacity="1" stroke="none"/>
</g>
<g id="Layer-2">
<path d="M17.5793 28.4747C17.7607 19.9532 28.0323 13.2383 40.5215 13.4765C49.6311 13.6503 57.4043 17.4753 60.8738 22.8395C62.161 24.8296 62.8557 27.0315 62.8066 29.3374C62.6679 35.8558 55.3789 39.9134 47.7461 44.0374C46.2734 44.8332 51.9766 52.8072 50.1995 52.9458C49.7309 52.9824 47.4227 51.9399 45.3825 50.0438C42.837 47.678 40.471 44.3472 39.8645 44.3357C27.3753 44.0974 17.3979 36.9962 17.5793 28.4747Z" fill="#9e9e9e" fill-opacity="0.166875" fill-rule="nonzero" opacity="1" stroke="#000000" stroke-linecap="butt" stroke-linejoin="round" stroke-width="1.5"/>
<text clip-path="url(#TextBounds)" fill="#000000" font-family="AmericanTypewriter" font-size="7" opacity="1" stroke="none" text-anchor="middle" transform="matrix(1 0 0 1 7.15866 15.9712)" x="0" y="0">
<tspan textLength="27.363" x="32.3971" y="6">ego sum
</tspan>
<tspan textLength="39.368" x="32.3971" y="14">elephantius
</tspan>
<tspan textLength="31.703" x="32.3971" y="22"> scientiae</tspan>
</text>
</g>
</svg>
