<?xml version="1.0" encoding="UTF-8" standalone="no"?>
<!DOCTYPE svg PUBLIC "-//W3C//DTD SVG 1.1//EN" "http://www.w3.org/Graphics/SVG/1.1/DTD/svg11.dtd">
<!-- Created with Vectornator (http://vectornator.io/) -->
<svg height="100%" stroke-miterlimit="10" style="fill-rule:nonzero;clip-rule:evenodd;stroke-linecap:round;stroke-linejoin:round;" version="1.1" viewBox="0 0 637.875 637.875" width="100%" xml:space="preserve" xmlns="http://www.w3.org/2000/svg" xmlns:xlink="http://www.w3.org/1999/xlink">
<defs/>
<g id="Layer-1">
<path d="M129.151 156.751C104.604 165.248 84.7781 176.105 69.6723 189.323C54.5666 202.54 41.3491 220.478 30.0198 243.137C18.6906 265.795 12.5539 289.398 11.6098 313.945C10.6656 338.492 13.97 361.15 21.5229 381.921C29.0757 402.691 39.933 421.101 54.0946 437.151C68.2562 453.201 85.7222 466.418 106.493 476.803C127.263 487.188 149.449 493.325 173.052 495.213C196.655 497.102 218.841 494.741 239.612 488.133C260.382 481.524 280.208 470.195 299.09 454.145C317.973 438.095 332.606 419.213 342.991 397.498C353.377 375.784 359.041 352.653 359.985 328.106C360.929 303.56 357.625 280.901 350.072 260.131C342.519 239.36 331.662 220.95 317.5 204.9C303.339 188.851 285.873 175.633 265.103 165.248C244.332 154.863 222.618 148.726 199.959 146.838C177.301 144.95 153.698 148.254 129.151 156.751ZM435.042 165.248C421.824 173.745 410.967 185.546 402.47 200.652C393.973 215.758 387.364 232.752 382.644 251.634C377.923 270.516 375.563 293.647 375.563 321.026C375.563 348.405 377.923 371.535 382.644 390.417C387.364 409.3 393.973 426.294 402.47 441.399C410.967 456.505 420.408 467.834 430.793 475.387C441.179 482.94 451.564 487.188 461.949 488.133C472.334 489.077 481.303 487.661 488.856 483.884C496.409 480.108 503.49 474.915 510.098 468.306C516.707 461.698 523.316 452.257 529.925 439.983C536.533 427.71 542.198 413.076 546.919 396.082C551.639 379.088 554.471 358.318 555.415 333.771C556.36 309.224 555.415 288.454 552.583 271.46C549.751 254.466 543.614 235.584 534.173 214.814C524.732 194.043 515.291 179.41 505.85 170.913C496.409 162.416 485.552 157.223 473.278 155.335C461.005 153.447 448.259 156.751 435.042 165.248ZM587.987 176.577C584.211 181.298 579.962 193.099 575.242 211.981C570.521 230.863 567.689 262.963 566.745 308.28C565.801 353.597 567.689 389.001 572.409 414.492C577.13 439.983 581.851 456.033 586.571 462.642C591.292 469.25 595.068 472.555 597.9 472.555C600.733 472.555 604.509 469.25 609.23 462.642C613.95 456.033 618.199 444.704 621.975 428.654C625.751 412.604 628.112 380.504 629.056 332.355C630 284.205 628.112 248.329 623.391 224.727C618.671 201.124 613.95 186.018 609.23 179.41C604.509 172.801 600.733 169.496 597.9 169.496C595.068 169.496 591.764 171.857 587.987 176.577Z" fill="#000000" fill-rule="nonzero" opacity="1" stroke="none"/>
</g>
</svg>
